<svg width="24" height="24" viewBox="0 0 24 24" fill="none" xmlns="http://www.w3.org/2000/svg">
<path d="M2.96997 2.965H21.03V21.03H2.96997V2.965Z" fill="white"/>
<path d="M20.39 2.965H3.60997C3.44023 2.965 3.27745 3.03242 3.15742 3.15245C3.0374 3.27247 2.96997 3.43526 2.96997 3.605V5.21C2.96997 5.04026 3.0374 4.87747 3.15742 4.75745C3.27745 4.63742 3.44023 4.57 3.60997 4.57H20.39C20.5597 4.57 20.7225 4.63742 20.8425 4.75745C20.9625 4.87747 21.03 5.04026 21.03 5.21V3.605C21.03 3.43526 20.9625 3.27247 20.8425 3.15245C20.7225 3.03242 20.5597 2.965 20.39 2.965Z" fill="#F0F0F0"/>
<path opacity="0.15" d="M5.30493 22.625C5.30493 22.7399 5.47823 22.8537 5.81494 22.9598C6.15165 23.066 6.64516 23.1625 7.26732 23.2437C7.88947 23.325 8.62807 23.3894 9.44095 23.4334C10.2538 23.4774 11.1251 23.5 12.0049 23.5C12.8848 23.5 13.756 23.4774 14.5689 23.4334C15.3818 23.3894 16.1204 23.325 16.7425 23.2437C17.3647 23.1625 17.8582 23.066 18.1949 22.9598C18.5316 22.8537 18.7049 22.7399 18.7049 22.625C18.7049 22.5101 18.5316 22.3963 18.1949 22.2902C17.8582 22.184 17.3647 22.0875 16.7425 22.0063C16.1204 21.925 15.3818 21.8606 14.5689 21.8166C13.756 21.7726 12.8848 21.75 12.0049 21.75C11.1251 21.75 10.2538 21.7726 9.44095 21.8166C8.62807 21.8606 7.88947 21.925 7.26732 22.0063C6.64516 22.0875 6.15165 22.184 5.81494 22.2902C5.47823 22.3963 5.30493 22.5101 5.30493 22.625Z" fill="#45413C"/>
<path d="M2.96997 6.60001H21.03V17.405H2.96997V6.60001Z" stroke="#E0E0E0" stroke-width="0.5" stroke-linecap="round" stroke-linejoin="round"/>
<path d="M2.96997 10.045H21.03V13.96H2.96997V10.045Z" stroke="#E0E0E0" stroke-width="0.5" stroke-linecap="round" stroke-linejoin="round"/>
<path d="M13.865 2.965V21.03H10.135V2.965H13.865Z" stroke="#E0E0E0" stroke-width="0.5" stroke-linecap="round" stroke-linejoin="round"/>
<path d="M17.41 2.965V21.03H6.58496V2.965H17.41Z" stroke="#E0E0E0" stroke-width="0.5" stroke-linecap="round" stroke-linejoin="round"/>
<path d="M10.94 13.31H13.06C13.1441 13.31 13.2273 13.3266 13.305 13.3587C13.3826 13.3909 13.4532 13.438 13.5126 13.4974C13.572 13.5569 13.6192 13.6274 13.6513 13.7051C13.6835 13.7827 13.7 13.866 13.7 13.95V21.035H10.3V13.95C10.3 13.7803 10.3675 13.6175 10.4875 13.4974C10.6075 13.3774 10.7703 13.31 10.94 13.31Z" fill="#FF6242"/>
<path d="M13.06 13.31H10.94C10.856 13.31 10.7728 13.3266 10.6951 13.3587C10.6175 13.3909 10.5469 13.438 10.4875 13.4974C10.4281 13.5569 10.3809 13.6274 10.3488 13.7051C10.3166 13.7827 10.3 13.866 10.3 13.95V15.14C10.3 14.9703 10.3675 14.8075 10.4875 14.6874C10.6075 14.5674 10.7703 14.5 10.94 14.5H13.06C13.1441 14.5 13.2273 14.5166 13.305 14.5487C13.3826 14.5809 13.4532 14.628 13.5126 14.6874C13.572 14.7469 13.6192 14.8174 13.6513 14.8951C13.6835 14.9727 13.7 15.056 13.7 15.14V13.95C13.7 13.866 13.6835 13.7827 13.6513 13.7051C13.6192 13.6274 13.572 13.5569 13.5126 13.4974C13.4532 13.438 13.3826 13.3909 13.305 13.3587C13.2273 13.3266 13.1441 13.31 13.06 13.31Z" fill="#FF866E"/>
<path d="M10.94 13.31H13.06C13.1441 13.31 13.2273 13.3266 13.305 13.3587C13.3826 13.3909 13.4532 13.438 13.5126 13.4974C13.572 13.5569 13.6192 13.6274 13.6513 13.7051C13.6835 13.7827 13.7 13.866 13.7 13.95V21.035H10.3V13.95C10.3 13.7803 10.3675 13.6175 10.4875 13.4974C10.6075 13.3774 10.7703 13.31 10.94 13.31Z" stroke="#45413C" stroke-width="0.5" stroke-linecap="round" stroke-linejoin="round"/>
<path d="M5.5399 11H7.6599C7.82964 11 7.99243 11.0674 8.11245 11.1875C8.23247 11.3075 8.2999 11.4703 8.2999 11.64V21.035H4.8999V11.62C4.9051 11.4538 4.97482 11.2961 5.09428 11.1803C5.21375 11.0646 5.37357 10.9999 5.5399 11Z" fill="#6DD627"/>
<path d="M7.6599 11H5.5399C5.37357 10.9999 5.21375 11.0646 5.09428 11.1803C4.97482 11.2961 4.9051 11.4538 4.8999 11.62V12.81C4.8999 12.6403 4.96733 12.4775 5.08735 12.3575C5.20738 12.2374 5.37016 12.17 5.5399 12.17H7.6599C7.82964 12.17 7.99243 12.2374 8.11245 12.3575C8.23247 12.4775 8.2999 12.6403 8.2999 12.81V11.62C8.2947 11.4538 8.22499 11.2961 8.10552 11.1803C7.98606 11.0646 7.82623 10.9999 7.6599 11Z" fill="#9CEB60"/>
<path d="M5.5399 11H7.6599C7.82964 11 7.99243 11.0674 8.11245 11.1875C8.23247 11.3075 8.2999 11.4703 8.2999 11.64V21.035H4.8999V11.62C4.9051 11.4538 4.97482 11.2961 5.09428 11.1803C5.21375 11.0646 5.37357 10.9999 5.5399 11Z" stroke="#45413C" stroke-width="0.5" stroke-linecap="round" stroke-linejoin="round"/>
<path d="M16.3551 6.97501H18.4751C18.6448 6.97501 18.8076 7.04243 18.9276 7.16246C19.0477 7.28248 19.1151 7.44527 19.1151 7.61501V21.035H15.7151V7.61501C15.7151 7.44527 15.7825 7.28248 15.9025 7.16246C16.0226 7.04243 16.1853 6.97501 16.3551 6.97501Z" fill="#00B8F0"/>
<path d="M18.4701 7H16.3551C16.271 7 16.1878 7.01655 16.1102 7.04872C16.0325 7.08088 15.962 7.12802 15.9025 7.18745C15.8431 7.24688 15.796 7.31743 15.7638 7.39508C15.7316 7.47273 15.7151 7.55595 15.7151 7.64V8.8C15.7151 8.71595 15.7316 8.63273 15.7638 8.55508C15.796 8.47743 15.8431 8.40688 15.9025 8.34745C15.962 8.28802 16.0325 8.24088 16.1102 8.20872C16.1878 8.17655 16.271 8.16 16.3551 8.16H18.4701C18.6398 8.16 18.8026 8.22743 18.9226 8.34745C19.0427 8.46747 19.1101 8.63026 19.1101 8.8V7.615C19.1036 7.44963 19.0334 7.2932 18.914 7.17853C18.7947 7.06386 18.6356 6.99987 18.4701 7Z" fill="#4ACFFF"/>
<path d="M16.3551 6.97501H18.4751C18.6448 6.97501 18.8076 7.04243 18.9276 7.16246C19.0477 7.28248 19.1151 7.44527 19.1151 7.61501V21.035H15.7151V7.61501C15.7151 7.44527 15.7825 7.28248 15.9025 7.16246C16.0226 7.04243 16.1853 6.97501 16.3551 6.97501Z" stroke="#45413C" stroke-width="0.5" stroke-linecap="round" stroke-linejoin="round"/>
<path d="M2.96997 2.965H21.03V21.03H2.96997V2.965Z" stroke="#45413C" stroke-width="0.5" stroke-linecap="round" stroke-linejoin="round"/>
</svg>
