<svg width="20" height="20" viewBox="0 0 20 20" fill="none" xmlns="http://www.w3.org/2000/svg">
<path d="M18.75 10C18.75 14.8325 14.8325 18.75 10 18.75C5.1675 18.75 1.25 14.8325 1.25 10C1.25 5.1675 5.1675 1.25 10 1.25C14.8325 1.25 18.75 5.1675 18.75 10Z" fill="url(#paint0_linear_1_9838)"/>
<path d="M14.1918 7.94188C14.3056 7.82401 14.3686 7.66613 14.3672 7.50226C14.3658 7.33839 14.3 7.18163 14.1841 7.06575C14.0683 6.94987 13.9115 6.88414 13.7476 6.88271C13.5838 6.88129 13.4259 6.94429 13.308 7.05814L9.06239 11.3038L7.00426 9.24564C6.88639 9.13179 6.72851 9.06879 6.56464 9.07021C6.40076 9.07164 6.24401 9.13737 6.12813 9.25325C6.01225 9.36913 5.94652 9.52589 5.94509 9.68976C5.94367 9.85363 6.00666 10.0115 6.12051 10.1294L8.62051 12.6294C8.73772 12.7466 8.89666 12.8124 9.06239 12.8124C9.22812 12.8124 9.38706 12.7466 9.50426 12.6294L14.1918 7.94188Z" fill="url(#paint1_linear_1_9838)"/>
<defs>
<linearGradient id="paint0_linear_1_9838" x1="1.875" y1="4.53125" x2="13.9519" y2="17.0787" gradientUnits="userSpaceOnUse">
<stop stop-color="#52D17C"/>
<stop offset="1" stop-color="#22918B"/>
</linearGradient>
<linearGradient id="paint1_linear_1_9838" x1="7.51926" y1="7.48064" x2="8.85114" y2="14.1625" gradientUnits="userSpaceOnUse">
<stop stop-color="white"/>
<stop offset="1" stop-color="#E3FFD9"/>
</linearGradient>
</defs>
</svg>
