<svg width="21" height="20" viewBox="0 0 21 20" fill="none" xmlns="http://www.w3.org/2000/svg">
<path d="M5.50623 19.3234C5.40089 19.2705 5.31831 19.1811 5.27378 19.072C5.22925 18.9628 5.22579 18.8412 5.26405 18.7297L5.89217 16.8906L7.12186 17.7203L6.12811 19.1641C6.06111 19.2612 5.96126 19.3308 5.84698 19.3601C5.7327 19.3894 5.61168 19.3763 5.50623 19.3234ZM15.4 19.3234C15.6172 19.2141 15.7219 18.9609 15.6422 18.7297L15.0062 16.8687L13.7109 17.6141L14.7781 19.1641C14.8451 19.2612 14.945 19.3308 15.0592 19.3601C15.1735 19.3894 15.2945 19.3763 15.4 19.3234Z" fill="#82AEC0"/>
<path d="M5.89221 16.8906L5.5719 17.8281C5.77034 17.7141 6.02971 17.725 6.23596 17.8266C6.44221 17.9281 6.60002 18.1063 6.72034 18.3031L7.0844 17.775C7.0844 17.7531 5.89221 16.8906 5.89221 16.8906ZM15.011 16.8672L15.3578 17.8984C15.1594 17.7844 14.9219 17.7875 14.7141 17.8891C14.5078 17.9906 14.35 18.1688 14.2297 18.3656L13.7531 17.6734L15.011 16.8672Z" fill="#2F7889"/>
<path d="M10.4531 18.1156C14.0783 18.1156 17.0172 15.1768 17.0172 11.5516C17.0172 7.92633 14.0783 4.9875 10.4531 4.9875C6.82787 4.9875 3.88904 7.92633 3.88904 11.5516C3.88904 15.1768 6.82787 18.1156 10.4531 18.1156Z" fill="#FFEFA1"/>
<path d="M10.4531 18.6844C14.7126 18.6844 18.1656 15.2314 18.1656 10.9719C18.1656 6.71237 14.7126 3.25937 10.4531 3.25937C6.1936 3.25937 2.7406 6.71237 2.7406 10.9719C2.7406 15.2314 6.1936 18.6844 10.4531 18.6844Z" fill="#CC2929"/>
<path d="M10.4531 18.6094C14.4572 18.6094 17.7031 15.3634 17.7031 11.3594C17.7031 7.35531 14.4572 4.10938 10.4531 4.10938C6.44906 4.10938 3.20312 7.35531 3.20312 11.3594C3.20312 15.3634 6.44906 18.6094 10.4531 18.6094Z" fill="#FF4638"/>
<path d="M10.4531 17.6141C13.9075 17.6141 16.7078 14.8137 16.7078 11.3594C16.7078 7.90501 13.9075 5.10469 10.4531 5.10469C6.99874 5.10469 4.19843 7.90501 4.19843 11.3594C4.19843 14.8137 6.99874 17.6141 10.4531 17.6141Z" fill="#FAFAFA"/>
<path d="M10.5 12.0547C10.884 12.0547 11.1953 11.7434 11.1953 11.3594C11.1953 10.9754 10.884 10.6641 10.5 10.6641C10.116 10.6641 9.80469 10.9754 9.80469 11.3594C9.80469 11.7434 10.116 12.0547 10.5 12.0547Z" fill="#563428"/>
<path d="M10.4531 6.65156C10.3265 6.65156 10.2234 6.54843 10.2234 6.42187V5.73437C10.2234 5.60781 10.3265 5.50468 10.4531 5.50468C10.5797 5.50468 10.6828 5.60781 10.6828 5.73437V6.42187C10.6828 6.54843 10.5797 6.65156 10.4531 6.65156ZM10.4531 17.2125C10.3265 17.2125 10.2234 17.1094 10.2234 16.9828V16.2953C10.2234 16.1687 10.3265 16.0656 10.4531 16.0656C10.5797 16.0656 10.6828 16.1687 10.6828 16.2953V16.9828C10.6828 17.1094 10.5797 17.2125 10.4531 17.2125ZM16.0765 11.5875H15.389C15.2625 11.5875 15.1594 11.4844 15.1594 11.3578C15.1594 11.2312 15.2625 11.1281 15.389 11.1281H16.0765C16.2031 11.1281 16.3062 11.2312 16.3062 11.3578C16.3062 11.4859 16.2031 11.5875 16.0765 11.5875ZM5.51716 11.5875H4.82966C4.7031 11.5875 4.59998 11.4844 4.59998 11.3578C4.59998 11.2312 4.7031 11.1281 4.82966 11.1281H5.51716C5.64373 11.1281 5.74685 11.2312 5.74685 11.3578C5.74685 11.4859 5.64373 11.5875 5.51716 11.5875Z" fill="#B2947C"/>
<path d="M10.4531 6.65156C10.3266 6.65156 10.2235 6.54843 10.2235 6.42187V5.73437C10.2235 5.60781 10.3266 5.50468 10.4531 5.50468C10.5797 5.50468 10.6828 5.60781 10.6828 5.73437V6.42187C10.6828 6.54843 10.5797 6.65156 10.4531 6.65156ZM10.4531 17.2125C10.3266 17.2125 10.2235 17.1094 10.2235 16.9828V16.2953C10.2235 16.1687 10.3266 16.0656 10.4531 16.0656C10.5797 16.0656 10.6828 16.1687 10.6828 16.2953V16.9828C10.6828 17.1094 10.5797 17.2125 10.4531 17.2125ZM7.78595 7.19843L7.4422 6.60312C7.37814 6.49375 7.41564 6.35312 7.52658 6.28906C7.63595 6.225 7.77658 6.2625 7.84064 6.37343L8.18439 6.96875C8.24845 7.07812 8.21095 7.21875 8.10001 7.28281C7.99064 7.34531 7.85001 7.30781 7.78595 7.19843ZM13.0672 16.3437L12.7235 15.7484C12.6594 15.6391 12.6985 15.4984 12.8078 15.4344C12.9172 15.3703 13.0578 15.4094 13.1219 15.5187L13.4656 16.1141C13.5297 16.2234 13.4906 16.3641 13.3813 16.4281C13.2703 16.4906 13.1297 16.4531 13.0672 16.3437Z" fill="#B2947C"/>
<path d="M7.78593 7.19844L7.44218 6.60313C7.37812 6.49375 7.41562 6.35313 7.52655 6.28906C7.63593 6.225 7.77655 6.2625 7.84062 6.37344L8.18437 6.96875C8.24843 7.07813 8.21093 7.21875 8.09999 7.28281C7.99062 7.34531 7.84999 7.30781 7.78593 7.19844ZM13.0672 16.3438L12.7234 15.7484C12.6594 15.6391 12.6984 15.4984 12.8078 15.4344C12.9172 15.3703 13.0578 15.4094 13.1219 15.5188L13.4656 16.1141C13.5297 16.2234 13.4906 16.3641 13.3812 16.4281C13.2703 16.4906 13.1297 16.4531 13.0672 16.3438ZM6.06405 9.08906L5.46874 8.74531C5.35937 8.68125 5.32187 8.54219 5.38437 8.43125C5.44843 8.32188 5.58749 8.28438 5.69843 8.34688L6.29374 8.69063C6.40312 8.75469 6.44062 8.89375 6.37812 9.00469C6.31405 9.11563 6.17343 9.15313 6.06405 9.08906ZM15.2094 14.3688L14.6141 14.025C14.5047 13.9609 14.4672 13.8219 14.5297 13.7109C14.5937 13.6016 14.7328 13.5641 14.8437 13.6266L15.4391 13.9703C15.5484 14.0344 15.5859 14.1734 15.5234 14.2844C15.4594 14.3953 15.3187 14.4328 15.2094 14.3688ZM12.8062 7.28281C12.6969 7.21875 12.6594 7.07969 12.7219 6.96875L13.0656 6.37344C13.1297 6.26406 13.2687 6.22656 13.3797 6.28906C13.4891 6.35313 13.5266 6.49219 13.4641 6.60313L13.1203 7.19844C13.0562 7.30781 12.9172 7.34531 12.8062 7.28281ZM7.52655 16.4281C7.41718 16.3641 7.37968 16.225 7.44218 16.1141L7.78593 15.5188C7.84999 15.4094 7.98905 15.3719 8.09999 15.4344C8.20937 15.4984 8.24687 15.6375 8.18437 15.7484L7.84062 16.3438C7.77655 16.4531 7.63593 16.4906 7.52655 16.4281ZM14.5297 9.00469C14.4656 8.89531 14.5031 8.75469 14.6141 8.69063L15.2094 8.34688C15.3187 8.28281 15.4594 8.32188 15.5234 8.43125C15.5875 8.54063 15.5484 8.68125 15.4391 8.74531L14.8437 9.08906C14.7328 9.15313 14.5922 9.11563 14.5297 9.00469ZM5.38437 14.2859C5.3203 14.1766 5.35937 14.0359 5.46874 13.9719L6.06405 13.6281C6.17343 13.5641 6.31405 13.6031 6.37812 13.7125C6.44218 13.8219 6.40312 13.9625 6.29374 14.0266L5.69843 14.3703C5.58749 14.4328 5.44687 14.3953 5.38437 14.2859Z" fill="#B2947C"/>
<path d="M7.92029 9.92032L10.4531 11.3594" stroke="#563428" stroke-width="0.78125" stroke-miterlimit="10" stroke-linecap="round"/>
<path d="M14.0734 9.28281L10.5687 11.3594" stroke="#563428" stroke-width="0.546875" stroke-miterlimit="10" stroke-linecap="round"/>
<path d="M14.8734 5.07657L14.2266 4.65313L16.4281 0.753128L17.1 1.13282L14.8734 5.07657Z" fill="#82AEC0"/>
<path d="M17.8703 5.50156C18.0625 5.55781 18.2687 5.45156 18.3281 5.26094C18.8344 3.64375 18.1781 1.88437 16.5906 1.06719C14.9922 0.243749 13.2562 0.784374 12.2453 2.16406C12.1312 2.31875 12.1578 2.53594 12.3015 2.6625C12.6281 2.95156 13.3531 3.49531 14.7984 4.22656C16.325 4.99844 17.3719 5.35469 17.8703 5.50156Z" fill="#CC2929"/>
<path d="M17.0391 1.60938C17.0391 1.60938 17.4469 1.08907 16.8547 0.759378C16.3938 0.503128 16.1016 1.06407 16.1016 1.06407C16 1.25 16.9688 1.7375 17.0391 1.60938ZM6.06721 5.08125L3.83752 1.13282L4.51096 0.753128L6.67659 4.59063L6.06721 5.08125Z" fill="#82AEC0"/>
<path d="M3.12966 5.50156C2.93747 5.55781 2.73122 5.45156 2.67184 5.26094C2.16559 3.64375 2.82184 1.88437 4.40934 1.06719C6.00778 0.243749 7.74372 0.784374 8.75466 2.16406C8.86872 2.31875 8.84216 2.53594 8.69841 2.6625C8.37184 2.95156 7.64684 3.49531 6.20153 4.22656C4.67497 4.99844 3.62809 5.35469 3.12966 5.50156Z" fill="#CC2929"/>
<path d="M3.96092 1.60938C3.96092 1.60938 3.55311 1.08907 4.14529 0.759378C4.60623 0.503128 4.89842 1.06407 4.89842 1.06407C4.99998 1.25 4.03123 1.7375 3.96092 1.60938Z" fill="#82AEC0"/>
<path d="M10.4531 3.62812V1.48438" stroke="#82AEC0" stroke-width="0.579063" stroke-miterlimit="10"/>
<path d="M10.4625 2.24687C9.85002 2.24687 9.23596 2.0125 9.23596 2.0125V1.54843C9.23596 1.54843 9.80627 1.29375 10.4922 1.29375C11.1781 1.29375 11.6875 1.54843 11.6875 1.54843V2.0125C11.6891 2.01406 11.0766 2.24687 10.4625 2.24687Z" fill="#82AEC0"/>
<path d="M9.39062 1.52969C9.32343 1.55469 9.31718 1.64688 9.37968 1.68282C9.47031 1.73438 9.57812 1.78751 9.61562 1.78126C10.1312 1.70157 10.8797 1.74063 11.3969 1.81876C11.4328 1.82501 11.5359 1.73751 11.6094 1.67188C11.65 1.63438 11.6406 1.57032 11.5906 1.54688C11.4281 1.47344 11.0609 1.34219 10.4922 1.34219C9.96718 1.34219 9.58749 1.45313 9.39062 1.52969Z" fill="#94D1E0"/>
<path d="M15.3531 1.23438C15.4015 1.40001 15.2234 1.53594 15.0797 1.63126C14.7172 1.87469 14.426 2.2101 14.2359 2.60313C14.1453 2.79063 14.0437 3.02032 13.8359 3.05001C13.7531 3.06094 13.6718 3.03594 13.5937 3.00782C13.4734 2.96407 13.3562 2.91407 13.2422 2.85626C13.1062 2.78751 12.9672 2.70001 12.9047 2.56094C12.8234 2.37813 12.9 2.16251 13.0093 1.99376C13.2703 1.59532 13.6953 1.34844 14.1328 1.18594C14.3968 1.08751 15.2218 0.785944 15.3531 1.23438ZM4.58278 2.55157C4.68435 2.76251 4.79841 2.96719 4.92497 3.16407C5.07966 3.40469 5.25935 3.67344 5.19372 3.95157C5.11716 4.27032 4.76403 4.42344 4.4531 4.52969C4.29372 4.58438 4.13591 4.63907 3.97653 4.69376C3.89216 4.72344 3.8031 4.75313 3.71403 4.74844C3.57341 4.74219 3.44685 4.65313 3.36716 4.53907C3.28591 4.42501 3.24528 4.28751 3.21403 4.15157C3.09685 3.62813 3.12028 3.07344 3.28122 2.56094C3.37497 2.26719 3.52185 1.95782 3.85466 1.93438C4.25935 1.90626 4.43122 2.23594 4.58278 2.55157Z" fill="#FF4638"/>
</svg>
