<svg width="25" height="24" viewBox="0 0 25 24" fill="none" xmlns="http://www.w3.org/2000/svg">
<path d="M22.5 9H2.5M14.5 17.5L17 15L14.5 12.5M10.5 12.5L8 15L10.5 17.5M2.5 7.8L2.5 16.2C2.5 17.8802 2.5 18.7202 2.82698 19.362C3.1146 19.9265 3.57354 20.3854 4.13803 20.673C4.77976 21 5.61984 21 7.3 21H17.7C19.3802 21 20.2202 21 20.862 20.673C21.4265 20.3854 21.8854 19.9265 22.173 19.362C22.5 18.7202 22.5 17.8802 22.5 16.2V7.8C22.5 6.11984 22.5 5.27977 22.173 4.63803C21.8854 4.07354 21.4265 3.6146 20.862 3.32698C20.2202 3 19.3802 3 17.7 3L7.3 3C5.61984 3 4.77976 3 4.13803 3.32698C3.57354 3.6146 3.1146 4.07354 2.82698 4.63803C2.5 5.27976 2.5 6.11984 2.5 7.8Z" stroke="white" stroke-width="2" stroke-linecap="round" stroke-linejoin="round"/>
</svg>
