<svg width="21" height="20" viewBox="0 0 21 20" fill="none" xmlns="http://www.w3.org/2000/svg">
<path d="M6.05625 6.36406C5.96718 7.31406 5.90468 8.99531 6.46562 9.71094C6.46562 9.71094 6.20156 7.86406 8.56875 5.54687C9.52187 4.61406 9.74218 3.34531 9.40937 2.39375C9.22031 1.85469 8.875 1.40937 8.575 1.09844C8.4 0.915625 8.53437 0.614062 8.78906 0.625C10.3297 0.69375 12.8266 1.12187 13.8875 3.78437C14.3531 4.95312 14.3875 6.16094 14.1656 7.38906C14.025 8.17344 13.525 9.91719 14.6656 10.1312C15.4797 10.2844 15.8734 9.6375 16.05 9.17187C16.1234 8.97812 16.3781 8.92969 16.5156 9.08437C17.8906 10.6484 18.0078 12.4906 17.7234 14.0766C17.1734 17.1422 14.0687 19.3734 10.9844 19.3734C7.13125 19.3734 4.06406 17.1687 3.26875 13.1781C2.94843 11.5672 3.11093 8.37969 5.59531 6.12969C5.77968 5.96094 6.08125 6.11094 6.05625 6.36406Z" fill="url(#paint0_radial_1_9646)"/>
<path d="M12.3922 12.0969C10.9719 10.2688 11.6078 8.18281 11.9562 7.35156C12.0031 7.24219 11.8781 7.13906 11.7797 7.20625C11.1687 7.62188 9.91717 8.6 9.33436 9.97656C8.5453 11.8375 8.60155 12.7484 9.06874 13.8609C9.34999 14.5313 9.02342 14.6734 8.85936 14.6984C8.69999 14.7234 8.55311 14.6172 8.43592 14.5063C8.09886 14.1825 7.85863 13.7713 7.74217 13.3188C7.71717 13.2219 7.59061 13.1953 7.5328 13.275C7.0953 13.8797 6.86873 14.85 6.8578 15.5359C6.82342 17.6563 8.57498 19.375 10.6937 19.375C13.364 19.375 15.3094 16.4219 13.775 13.9531C13.3297 13.2344 12.9109 12.7641 12.3922 12.0969Z" fill="url(#paint1_radial_1_9646)"/>
<defs>
<radialGradient id="paint0_radial_1_9646" cx="0" cy="0" r="1" gradientUnits="userSpaceOnUse" gradientTransform="translate(10.2212 19.422) rotate(-179.751) scale(11.0293 18.0969)">
<stop offset="0.314" stop-color="#FF9800"/>
<stop offset="0.662" stop-color="#FF6D00"/>
<stop offset="0.972" stop-color="#F44336"/>
</radialGradient>
<radialGradient id="paint1_radial_1_9646" cx="0" cy="0" r="1" gradientUnits="userSpaceOnUse" gradientTransform="translate(10.8406 8.44662) rotate(90.5787) scale(11.5401 8.68476)">
<stop offset="0.214" stop-color="#FFF176"/>
<stop offset="0.328" stop-color="#FFF27D"/>
<stop offset="0.487" stop-color="#FFF48F"/>
<stop offset="0.672" stop-color="#FFF7AD"/>
<stop offset="0.793" stop-color="#FFF9C4"/>
<stop offset="0.822" stop-color="#FFF8BD" stop-opacity="0.804"/>
<stop offset="0.863" stop-color="#FFF6AB" stop-opacity="0.529"/>
<stop offset="0.91" stop-color="#FFF38D" stop-opacity="0.209"/>
<stop offset="0.941" stop-color="#FFF176" stop-opacity="0"/>
</radialGradient>
</defs>
</svg>
