<svg width="24" height="24" viewBox="0 0 24 24" fill="none" xmlns="http://www.w3.org/2000/svg">
<path d="M0 12C0 5.37258 5.37258 0 12 0C18.6274 0 24 5.37258 24 12C24 18.6274 18.6274 24 12 24C5.37258 24 0 18.6274 0 12Z" fill="#DCFAE6"/>
<path fill-rule="evenodd" clip-rule="evenodd" d="M17.0964 7.39016L9.93641 14.3002L8.03641 12.2702C7.68641 11.9402 7.13641 11.9202 6.73641 12.2002C6.34641 12.4902 6.23641 13.0002 6.47641 13.4102L8.72641 17.0702C8.94641 17.4102 9.32641 17.6202 9.75641 17.6202C10.1664 17.6202 10.5564 17.4102 10.7764 17.0702C11.1364 16.6002 18.0064 8.41016 18.0064 8.41016C18.9064 7.49016 17.8164 6.68016 17.0964 7.38016V7.39016Z" fill="#079455"/>
</svg>
