<svg width="24" height="24" viewBox="0 0 24 24" fill="none" xmlns="http://www.w3.org/2000/svg">
<path d="M10.5 21.75C10.5 22.575 11.175 23.25 12 23.25C12.825 23.25 13.5 22.575 13.5 21.75H10.5Z" fill="#616466"/>
<path d="M9.3375 18H14.625C14.925 16.3875 15.9375 14.8125 16.9875 13.1625C18.225 11.25 19.5 9.2625 19.5 7.35C19.5 3.7125 16.125 0.75 12 0.75C7.875 0.75 4.5 3.7125 4.5 7.35C4.5 9.2625 5.775 11.25 6.975 13.1625C8.025 14.8125 9.0375 16.3875 9.3375 18Z" fill="#FFCE31"/>
<path d="M9.90006 12.6C9.93756 12.825 10.0126 13.05 10.0501 13.275C10.1626 13.6875 10.2376 14.0625 10.3501 14.475C10.6876 15.9 10.9876 17.1 11.2501 18.0375H11.4751C11.2876 17.1 11.0251 15.8625 10.6876 14.4375C10.6126 14.0625 10.5001 13.65 10.4251 13.2375C10.3876 13.05 10.3501 12.825 10.2751 12.6375C10.5751 12.5625 11.2876 12.3375 12.0001 11.55C12.7126 12.3375 13.4251 12.5625 13.7251 12.6375C13.6876 12.8625 13.6501 13.05 13.5751 13.2375C13.5001 13.65 13.3876 14.0625 13.3126 14.4375C12.9751 15.8625 12.7126 17.1 12.5251 18.0375H12.7501C12.9751 17.1 13.3126 15.9 13.6501 14.475C13.7251 14.1 13.8376 13.6875 13.9501 13.275C13.9876 13.05 14.0626 12.825 14.1001 12.6C14.4001 12.5625 14.6626 12.4875 14.8501 12.3C15.0751 12.075 15.1876 11.8125 15.1126 11.5125C15.0751 11.3625 15.0001 11.175 14.7751 11.1375C14.6626 11.1 14.5876 11.1 14.4751 11.1375C14.3626 11.175 14.2876 11.25 14.2501 11.2875C14.0626 11.5125 13.9876 11.7375 13.9126 11.9625L13.8001 12.3C13.8001 12.3 13.5001 12.3375 12.7876 11.85C12.4126 11.5875 12.3001 11.4 12.1876 11.2875C12.3001 11.1375 12.4126 11.025 12.5251 10.8375C12.5626 10.725 12.6001 10.65 12.6376 10.5C12.6376 10.3875 12.6376 10.2375 12.5626 10.125C12.4876 10.0125 12.4126 9.89998 12.2251 9.82498C12.1501 9.78748 12.0751 9.78748 12.0001 9.78748C11.9251 9.78748 11.8501 9.78748 11.7751 9.82498C11.6251 9.89998 11.5126 10.0125 11.4376 10.125C11.3626 10.2375 11.3626 10.3875 11.3626 10.5C11.3626 10.6125 11.4001 10.725 11.4751 10.8375C11.5501 11.025 11.6626 11.175 11.8126 11.2875C11.7001 11.4 11.5876 11.5875 11.2126 11.85C10.5376 12.3 10.2001 12.3 10.2001 12.3L10.0876 11.9625C10.0126 11.7375 9.93756 11.5125 9.75006 11.2875C9.71256 11.25 9.63756 11.175 9.52506 11.1375C9.41256 11.1 9.30006 11.1 9.22506 11.1375C9.00006 11.2125 8.92506 11.4 8.88756 11.5125C8.85006 11.8125 8.96256 12.075 9.15006 12.3C9.37506 12.4875 9.63756 12.5625 9.90006 12.6ZM14.2501 12.0375C14.3251 11.85 14.4001 11.625 14.5501 11.5125C14.5876 11.475 14.6251 11.475 14.6251 11.475H14.7001C14.7376 11.475 14.7751 11.5125 14.8126 11.625C14.8501 11.775 14.7751 12 14.6251 12.1125C14.5126 12.1875 14.3626 12.2625 14.2126 12.3C14.2126 12.1875 14.2126 12.1125 14.2501 12.0375ZM11.7751 10.2375C11.8501 10.1625 11.9251 10.0875 12.0001 10.0875C12.0751 10.0875 12.1501 10.125 12.2251 10.2375C12.3001 10.35 12.2626 10.5 12.1876 10.65C12.1501 10.7625 12.0751 10.875 12.0001 10.95C11.9251 10.8375 11.8501 10.7625 11.8126 10.65C11.7376 10.5375 11.7001 10.3875 11.7751 10.2375ZM9.22506 11.55C9.22506 11.475 9.26256 11.4375 9.33756 11.4H9.41256C9.41256 11.4 9.45006 11.4375 9.48756 11.4375C9.60006 11.55 9.71256 11.775 9.78756 11.9625C9.82506 12.0375 9.82506 12.1125 9.86256 12.1875C9.71256 12.15 9.56256 12.1125 9.45006 12C9.30006 11.925 9.22506 11.7375 9.22506 11.55Z" fill="#C79127"/>
<path d="M9.3374 18.75H14.6999V19.425H9.3374V18.75ZM9.7124 20.1H14.3249V20.775H9.7124V20.1Z" fill="#94989B"/>
<path d="M9.7124 19.425H14.3249V20.1H9.7124V19.425Z" fill="#616466"/>
<path d="M14.6999 18.75L9.7124 20.1V20.8125L14.6999 19.425V18.75ZM10.0874 21.4875H13.9499V22.1625H10.0874V21.4875Z" fill="#94989B"/>
<path d="M10.0874 20.8125H13.9499V21.4875H10.0874V20.8125Z" fill="#616466"/>
<path d="M14.3249 20.1L10.0874 21.4875V22.2L14.3249 20.8125V20.1Z" fill="#94989B"/>
</svg>
