<svg width="30" height="30" viewBox="0 0 30 30" fill="none" xmlns="http://www.w3.org/2000/svg">
<path d="M16.5479 20.8781H12.901C12.1604 20.8781 11.551 21.4781 11.5604 22.2187V25.8656C11.5604 26.6062 12.1604 27.2062 12.901 27.2062H13.1335C13.2916 27.488 13.5219 27.7226 13.8007 27.8859C14.0794 28.0492 14.3967 28.1352 14.7198 28.1352C15.0429 28.1352 15.3601 28.0492 15.6389 27.8859C15.9177 27.7226 16.148 27.488 16.306 27.2062H16.5479C17.2885 27.2062 17.8885 26.6062 17.8885 25.8656V22.2187C17.8885 21.4781 17.2885 20.8781 16.5479 20.8781Z" fill="#9B9B9B"/>
<path d="M17.026 21.6844C17.251 21.6844 17.4292 21.5156 17.4479 21.3C17.5135 20.4937 17.8604 18.5344 19.7542 16.4344C20.658 15.7231 21.4003 14.8278 21.9321 13.808C22.4638 12.7882 22.7728 11.667 22.8385 10.5188C22.8573 10.2938 22.8667 10.1438 22.8667 10.05V9.95625C22.8104 5.475 19.1823 1.875 14.7104 1.875C12.5643 1.87488 10.5048 2.72162 8.97933 4.23126C7.4539 5.74089 6.58577 7.79147 6.56354 9.9375C6.56354 9.9375 6.55417 10.1625 6.59167 10.5375C6.74167 12.9188 7.90417 15.0281 9.67604 16.425C11.5698 18.5344 11.9448 20.4937 12.0104 21.3C12.0292 21.5156 12.2073 21.6844 12.4323 21.6844H17.026Z" fill="#FCD53F"/>
<path d="M14.7197 10.0312C16.2385 10.0312 17.476 11.2594 17.4947 12.7781V12.8531C17.4947 12.8812 17.4947 12.9188 17.4853 12.975C17.4385 13.7625 17.0541 14.5031 16.4353 14.9906L16.3697 15.0375L16.3135 15.0938C15.2822 16.2375 15.0666 19.1438 15.0291 20.7375H14.4197C14.3728 19.1438 14.1478 16.2375 13.1166 15.0938L13.0603 15.0375L12.9947 14.9906C12.685 14.7457 12.4312 14.4376 12.2501 14.0868C12.0691 13.7359 11.9649 13.3505 11.9447 12.9562C11.9447 12.9187 11.9353 12.8906 11.9353 12.8719V12.7875C11.9635 11.2688 13.2103 10.0312 14.7197 10.0312ZM14.7197 9.09375C13.9482 9.09403 13.196 9.33463 12.5676 9.78211C11.9392 10.2296 11.4658 10.8617 11.2132 11.5907C10.9606 12.3196 10.9414 13.1091 11.1581 13.8495C11.3749 14.5899 11.817 15.2443 12.4228 15.7219C13.5478 16.9781 13.4916 21.6844 13.4916 21.6844H15.9666C15.9666 21.6844 15.8916 16.9781 17.026 15.7313C17.8322 15.0938 18.3666 14.1281 18.4322 13.0312C18.4416 12.9281 18.4416 12.8625 18.4416 12.8156V12.7781C18.4317 11.7975 18.0352 10.8605 17.3383 10.1706C16.6414 9.48067 15.7003 9.0937 14.7197 9.09375Z" fill="#FFB02E"/>
<path d="M17.9691 23.4872C18.0298 23.4766 18.0878 23.4542 18.1399 23.4212C18.1919 23.3882 18.2369 23.3452 18.2723 23.2948C18.3078 23.2444 18.3329 23.1875 18.3464 23.1274C18.3598 23.0673 18.3613 23.0051 18.3507 22.9444C18.3401 22.8837 18.3177 22.8257 18.2847 22.7737C18.2516 22.7216 18.2087 22.6766 18.1583 22.6412C18.1079 22.6058 18.051 22.5806 17.9909 22.5672C17.9308 22.5537 17.8686 22.5522 17.8079 22.5628L11.4891 23.6691C11.4284 23.6797 11.3704 23.7021 11.3184 23.7351C11.2664 23.7681 11.2214 23.8111 11.1859 23.8615C11.1505 23.9119 11.1253 23.9688 11.1119 24.0289C11.0984 24.089 11.097 24.1512 11.1076 24.2119C11.1182 24.2726 11.1406 24.3306 11.1736 24.3826C11.2066 24.4346 11.2495 24.4797 11.2999 24.5151C11.3504 24.5505 11.4072 24.5757 11.4674 24.5891C11.5275 24.6026 11.5897 24.604 11.6504 24.5935L17.9691 23.4872ZM17.9223 25.5028C18.0433 25.48 18.1505 25.4104 18.2206 25.3091C18.2908 25.2078 18.3182 25.083 18.297 24.9616C18.2758 24.8402 18.2077 24.7321 18.1074 24.6606C18.0071 24.589 17.8826 24.5599 17.761 24.5794L11.5266 25.6763C11.4639 25.6846 11.4036 25.7054 11.3492 25.7377C11.2947 25.7699 11.2474 25.8128 11.21 25.8638C11.1726 25.9148 11.1459 25.9728 11.1316 26.0344C11.1172 26.096 11.1154 26.1599 11.1264 26.2221C11.1373 26.2844 11.1608 26.3438 11.1953 26.3968C11.2298 26.4498 11.2747 26.4953 11.3272 26.5305C11.3798 26.5656 11.4389 26.5898 11.501 26.6016C11.5632 26.6133 11.6271 26.6124 11.6888 26.5988L17.9223 25.5028Z" fill="#D3D3D3"/>
<path d="M12.9291 5.1C11.8885 6.9 12.4135 9.15 14.101 10.1156C15.7885 11.0813 17.9916 10.4156 19.0322 8.61563C20.0729 6.81563 19.5479 4.56563 17.8604 3.6C16.1729 2.63438 13.9697 3.3 12.9291 5.1Z" fill="#FFF478"/>
</svg>
