<svg width="20" height="20" viewBox="0 0 20 20" fill="none" xmlns="http://www.w3.org/2000/svg">
<path d="M14.7168 13.6366C14.1882 13.6366 13.7598 13.2081 13.7598 12.6796V7.10672C13.7598 5.22847 12.2317 3.70035 10.3534 3.70035C8.47515 3.70035 6.94702 5.22843 6.94702 7.10672V10.348C6.94702 10.8766 6.51854 11.305 5.98999 11.305C5.46144 11.305 5.03296 10.8766 5.03296 10.348V7.10672C5.03296 4.173 7.41968 1.78629 10.3534 1.78629C13.2871 1.78629 15.6738 4.173 15.6738 7.10672V12.6796C15.6738 13.2081 15.2453 13.6366 14.7168 13.6366Z" fill="#B1B4B5"/>
<path d="M16.1763 19.432H4.53027C3.44297 19.432 2.56152 18.5505 2.56152 17.4632V10.7301C2.56152 9.6428 3.44297 8.76135 4.53027 8.76135H16.1763C17.2636 8.76135 18.145 9.6428 18.145 10.7301V17.4632C18.145 18.5505 17.2636 19.432 16.1763 19.432Z" fill="#FFB636"/>
<path d="M4.27002 17.8454H4.17139C3.86072 17.8454 3.60889 17.5935 3.60889 17.2829V10.9105C3.60889 10.5999 3.86072 10.348 4.17139 10.348H4.27002C4.58068 10.348 4.83252 10.5999 4.83252 10.9105V17.2829C4.83252 17.5935 4.58068 17.8454 4.27002 17.8454Z" fill="#FFD469"/>
</svg>
