<svg width="24" height="24" viewBox="0 0 24 24" fill="none" xmlns="http://www.w3.org/2000/svg">
<path d="M16.2 3.00488H7.8C6.11984 3.00488 5.27976 3.00488 4.63803 3.33186C4.07354 3.61948 3.6146 4.07843 3.32698 4.64291C3 5.28465 3 6.12473 3 7.80488V16.2049C3 17.885 3 18.7251 3.32698 19.3669C3.6146 19.9313 4.07354 20.3903 4.63803 20.6779C5.27976 21.0049 6.11984 21.0049 7.8 21.0049H16.2C17.8802 21.0049 18.7202 21.0049 19.362 20.6779C19.9265 20.3903 20.3854 19.9313 20.673 19.3669C21 18.7251 21 17.885 21 16.2049V7.80488M16.2 3.00488C17.8802 3.00488 18.7202 3.00488 19.362 3.33186C19.9265 3.61948 20.3854 4.07843 20.673 4.64291C21 5.28465 21 6.12473 21 7.80488M16.2 3.00488H15.2C14.0799 3.00488 13.5198 3.00488 13.092 3.22287C12.7157 3.41462 12.4097 3.72058 12.218 4.0969C12 4.52473 12 5.08478 12 6.20488V8.80488C12 9.92499 12 10.485 12.218 10.9129C12.4097 11.2892 12.7157 11.5951 13.092 11.7869C13.5198 12.0049 14.0799 12.0049 15.2 12.0049H17.8C18.9201 12.0049 19.4802 12.0049 19.908 11.7869C20.2843 11.5951 20.5903 11.2892 20.782 10.9129C21 10.485 21 9.92499 21 8.80488V7.80488M12.5 11.5049L7 17.0049M7 17.0049H12M7 17.0049L7 12.0049" stroke="#3183EF" stroke-width="2" stroke-linecap="round" stroke-linejoin="round"/>
</svg>
