<svg width="158" height="60" viewBox="0 0 158 60" fill="none" xmlns="http://www.w3.org/2000/svg">
<path d="M49.3082 38.747C48.2835 41.0129 46.8411 43.1367 44.9768 44.9989C36.6969 53.2693 23.2717 53.2693 14.9918 44.9989C6.71217 36.7285 6.7127 23.3193 14.9925 15.049C16.7436 13.3 18.7252 11.9216 20.8392 10.9124C20.6301 11.0122 20.4223 11.1159 20.2159 11.2229C18.8829 16.3894 22.1991 24.413 28.9009 31.1072C35.6026 37.801 43.635 41.1129 48.8073 39.7815C48.9846 39.4406 49.1508 39.095 49.3082 38.747ZM49.5404 38.2156C49.6613 37.9273 49.7755 37.6369 49.8831 37.3446C49.7755 37.6369 49.6613 37.9273 49.5404 38.2156ZM22.3875 10.2478C22.2034 10.3182 22.0201 10.3914 21.8375 10.4672C22.0201 10.3914 22.2034 10.3182 22.3875 10.2478ZM50.3315 35.9913C50.3883 35.7974 50.4407 35.6025 50.4918 35.4074C50.4407 35.6025 50.3883 35.7974 50.3315 35.9913ZM24.4845 9.56797C24.7209 9.50481 24.9582 9.44616 25.1962 9.39129C24.9582 9.44617 24.7208 9.5048 24.4845 9.56797ZM50.8394 33.8442C50.814 33.9832 50.7867 34.1219 50.7585 34.2604C50.7867 34.1219 50.8139 33.9832 50.8394 33.8442ZM27.356 9.00896C26.9731 9.05648 26.5914 9.11519 26.2111 9.18356C26.5915 9.11521 26.9731 9.05647 27.356 9.00896ZM51.0915 32.0257C51.0968 31.9699 51.1012 31.9139 51.106 31.858C51.1012 31.9139 51.0968 31.9699 51.0915 32.0257ZM29.1925 8.86265C28.8725 8.87454 28.5528 8.89296 28.2335 8.91924C28.5528 8.89297 28.8725 8.87452 29.1925 8.86265ZM31.0276 8.87231C30.9551 8.86877 30.8825 8.86614 30.81 8.86334C30.8738 8.86581 30.9376 8.86789 31.0014 8.87093L31.0276 8.87231ZM31.4387 8.89647L31.5092 8.90061C31.5956 8.90679 31.6819 8.91476 31.7683 8.922C31.6585 8.9128 31.5486 8.90396 31.4387 8.89647ZM33.0617 9.06969C33.2819 9.10178 33.5015 9.13833 33.7209 9.17735C33.5015 9.13834 33.2819 9.10177 33.0617 9.06969ZM50.051 36.8719C50.0223 36.956 49.993 37.0399 49.9633 37.1238C49.993 37.0399 50.0223 36.956 50.051 36.8719ZM22.8498 10.0773C22.7361 10.1178 22.6223 10.1583 22.5091 10.2008C22.6223 10.1583 22.736 10.1178 22.8498 10.0773ZM23.3341 9.91097C23.2509 9.93836 23.1676 9.96602 23.0847 9.99447C23.1677 9.96603 23.2509 9.93836 23.3341 9.91097ZM24.2074 9.64458C24.2997 9.61857 24.392 9.5927 24.4845 9.56797C24.392 9.5927 24.2997 9.61857 24.2074 9.64458ZM32.9221 9.05037C32.9687 9.05683 33.0152 9.06292 33.0617 9.06969C33.0152 9.06292 32.9687 9.05683 32.9221 9.05037Z" fill="#0267EE"/>
<path d="M50.5479 24.854C51.7941 29.8212 51.2142 35.1518 48.8074 39.7809C43.6351 41.1124 35.6028 37.8005 28.9011 31.1066C22.1992 24.4124 18.8829 16.3888 20.2161 11.2224C24.8478 8.81974 30.1814 8.23897 35.1519 9.48115C33.5326 9.30399 32.1569 9.63762 31.2392 10.5543C28.6686 13.122 30.6678 19.2811 35.704 24.3115C40.7401 29.3417 46.9057 31.338 49.4763 28.7705C50.3956 27.8522 50.7274 26.4751 50.5479 24.854Z" fill="#02DEEE"/>
<ellipse cx="12.8886" cy="6.57866" rx="12.8886" ry="6.57866" transform="matrix(0.707513 0.706701 -0.707513 0.706701 35.8934 5.90479)" fill="white"/>
<ellipse cx="7.64548" cy="3.93196" rx="7.64548" ry="3.93196" transform="matrix(0.707513 0.706701 -0.707513 0.706701 39.0688 10.1431)" fill="#333333"/>
<path fill-rule="evenodd" clip-rule="evenodd" d="M90.9928 24.4643C92.0804 24.4512 93.0763 24.2647 93.9804 23.9047C94.8845 23.5448 95.6642 23.0442 96.3194 22.4029C96.9745 21.7615 97.4856 20.9959 97.8525 20.1058C98.2193 19.2158 98.4028 18.2277 98.4028 17.1413C98.4028 16.0288 98.2193 15.021 97.8525 14.1179C97.4856 13.2148 96.9745 12.4426 96.3194 11.8013C95.6642 11.16 94.8845 10.6724 93.9804 10.3387C93.0763 10.0049 92.0804 9.84459 90.9928 9.85768C89.9184 9.85768 88.9323 10.0311 88.0347 10.3779C87.1372 10.7248 86.3641 11.2189 85.7154 11.8602C85.0668 12.5015 84.5591 13.277 84.1922 14.1866C83.8253 15.0963 83.6418 16.1074 83.6418 17.2199C83.6418 18.3062 83.8253 19.2944 84.1922 20.1844C84.5591 21.0744 85.0668 21.8368 85.7154 22.4716C86.3641 23.1064 87.1372 23.5972 88.0347 23.944C88.9323 24.2908 89.9184 24.4643 90.9928 24.4643ZM55.4628 20.9304L54.2049 24.1109H51.4335L57.4873 10.2111H59.6297L65.6245 24.1109H62.7942L61.4969 20.9304H55.4628ZM56.3083 18.8096H60.6324L58.49 13.156L56.3083 18.8096ZM73.5132 24.1109C74.3519 24.1109 75.2069 23.9702 76.0782 23.6888C76.9496 23.4074 77.7424 22.982 78.4565 22.4127C79.1706 21.8433 79.7537 21.1235 80.2058 20.2531C80.6579 19.3827 80.8839 18.352 80.8839 17.161C80.8839 15.983 80.6874 14.9589 80.2943 14.0885C79.9011 13.2181 79.377 12.495 78.7218 11.9191C78.0667 11.3432 77.3132 10.9146 76.4615 10.6332C75.6098 10.3518 74.7253 10.2111 73.8081 10.2111H68.3243V24.1109H73.5132ZM70.8006 21.8718H72.6482C73.4213 21.8718 74.1518 21.7834 74.8398 21.6068C75.5277 21.4301 76.1272 21.1552 76.6382 20.7823C77.1492 20.4093 77.5522 19.9251 77.847 19.3296C78.1418 18.7341 78.2892 18.011 78.2892 17.1604C78.2892 16.3228 78.1582 15.603 77.8961 15.001C77.6341 14.399 77.2704 13.9115 76.8053 13.5385C76.3401 13.1655 75.7898 12.8907 75.1542 12.714C74.5187 12.5373 73.821 12.449 73.061 12.449H70.8006V21.8718ZM89.0566 21.8325C89.6397 22.0943 90.2916 22.2251 91.0123 22.2251C91.733 22.2251 92.3881 22.0943 92.9778 21.8325C93.5674 21.5708 94.0719 21.2109 94.4912 20.7528C94.9105 20.2948 95.2349 19.7517 95.4642 19.1235C95.6935 18.4953 95.8081 17.8082 95.8081 17.0622C95.8081 16.3686 95.6935 15.7208 95.4642 15.1188C95.2349 14.5168 94.9105 13.99 94.4912 13.5385C94.0719 13.087 93.5674 12.7336 92.9778 12.4784C92.3881 12.2232 91.733 12.0956 91.0123 12.0956C90.2916 12.0956 89.6397 12.2232 89.0566 12.4784C88.4735 12.7336 87.9723 13.087 87.553 13.5385C87.1337 13.99 86.8093 14.5168 86.58 15.1188C86.3507 15.7208 86.2361 16.3686 86.2361 17.0622C86.2361 17.8082 86.3507 18.4953 86.58 19.1235C86.8093 19.7517 87.1337 20.2948 87.553 20.7528C87.9723 21.2109 88.4735 21.5708 89.0566 21.8325ZM104.384 24.1109V18.3586H106.153C106.887 18.3586 107.591 18.3062 108.266 18.2015C108.941 18.0968 109.534 17.8972 110.045 17.6027C110.556 17.3082 110.962 16.8927 111.264 16.3561C111.565 15.8194 111.716 15.1127 111.716 14.2357C111.716 13.4635 111.575 12.8189 111.293 12.3019C111.011 11.7849 110.635 11.3727 110.163 11.0651C109.691 10.7575 109.144 10.5383 108.522 10.4074C107.899 10.2765 107.254 10.2111 106.586 10.2111H101.908V24.1109H104.384ZM104.385 16.2377H105.879C106.232 16.2377 106.599 16.2246 106.979 16.1984C107.359 16.1723 107.71 16.0937 108.031 15.9629C108.352 15.832 108.614 15.6357 108.817 15.3739C109.02 15.1122 109.122 14.7458 109.122 14.2746C109.122 13.8427 109.03 13.4992 108.846 13.244C108.663 12.9888 108.427 12.7925 108.139 12.6551C107.851 12.5177 107.53 12.4293 107.176 12.3901C106.822 12.3508 106.481 12.3312 106.154 12.3312H104.385V16.2377ZM120.391 24.1109V12.4492H124.656V10.2111H113.649V12.4492H117.914V24.1109H120.391ZM127.433 10.2111H129.91V24.1109H127.433V10.2111ZM140.707 24.4642C141.729 24.4642 142.692 24.2679 143.596 23.8753C144.5 23.4826 145.267 22.8544 145.896 21.9905L143.852 20.5377C143.393 21.1267 142.898 21.5554 142.368 21.8237C141.837 22.092 141.29 22.2261 140.726 22.2261C140.006 22.2261 139.354 22.0953 138.771 21.8335C138.188 21.5717 137.686 21.2118 137.267 20.7537C136.848 20.2956 136.524 19.7524 136.294 19.1242C136.065 18.496 135.95 17.8088 135.95 17.0628C135.95 16.3691 136.065 15.7212 136.294 15.1192C136.524 14.5171 136.848 13.9903 137.267 13.5388C137.686 13.0872 138.188 12.7338 138.771 12.4786C139.354 12.2234 140.006 12.0958 140.726 12.0958C141.211 12.0958 141.693 12.1874 142.171 12.3706C142.649 12.5539 143.144 12.9203 143.655 13.47L145.581 12.0565C144.887 11.2581 144.137 10.692 143.331 10.3583C142.525 10.0245 141.65 9.85766 140.707 9.85766C139.632 9.85766 138.646 10.0311 137.749 10.3779C136.851 10.7248 136.078 11.2188 135.429 11.8602C134.781 12.5015 134.273 13.277 133.906 14.1866C133.539 15.0963 133.356 16.1073 133.356 17.2198C133.356 18.3062 133.539 19.2943 133.906 20.1844C134.273 21.0744 134.781 21.8368 135.429 22.4715C136.078 23.1063 136.851 23.5971 137.749 23.944C138.646 24.2908 139.632 24.4642 140.707 24.4642ZM154.276 24.1894C153.66 24.3726 153.011 24.4642 152.33 24.4642C151.465 24.4642 150.633 24.3203 149.834 24.0323C149.034 23.7444 148.346 23.2601 147.77 22.5795L149.637 20.7733C149.938 21.2314 150.335 21.5881 150.826 21.8433C151.318 22.0985 151.838 22.2261 152.389 22.2261C152.677 22.2261 152.965 22.1869 153.254 22.1083C153.542 22.0298 153.804 21.912 154.04 21.755C154.276 21.5979 154.466 21.3983 154.61 21.1562C154.754 20.914 154.826 20.6359 154.826 20.3218C154.826 19.8113 154.662 19.4187 154.335 19.1438C154.007 18.869 153.601 18.6367 153.116 18.4469C152.631 18.2571 152.101 18.0771 151.524 17.907C150.947 17.7368 150.417 17.5045 149.932 17.21C149.447 16.9155 149.041 16.5229 148.713 16.0321C148.386 15.5413 148.222 14.8836 148.222 14.059C148.222 13.3392 148.369 12.7175 148.664 12.1939C148.959 11.6704 149.346 11.2352 149.824 10.8884C150.302 10.5415 150.849 10.283 151.465 10.1129C152.081 9.94273 152.71 9.85766 153.352 9.85766C154.086 9.85766 154.797 9.96891 155.484 10.1914C156.172 10.4139 156.792 10.7804 157.342 11.2908L155.534 13.1952C155.272 12.8156 154.921 12.5375 154.482 12.3608C154.043 12.1841 153.581 12.0958 153.096 12.0958C152.808 12.0958 152.53 12.1285 152.261 12.1939C151.992 12.2594 151.75 12.3641 151.534 12.508C151.318 12.652 151.144 12.8385 151.013 13.0676C150.882 13.2966 150.816 13.5682 150.816 13.8823C150.816 14.3535 150.98 14.7134 151.308 14.9621C151.635 15.2108 152.042 15.4267 152.526 15.61C153.011 15.7932 153.542 15.9699 154.118 16.1401C154.695 16.3102 155.226 16.5458 155.71 16.8468C156.195 17.1479 156.602 17.5471 156.929 18.0444C157.257 18.5418 157.42 19.2027 157.42 20.0273C157.42 20.7733 157.283 21.4245 157.008 21.9807C156.733 22.537 156.362 22.9983 155.897 23.3648C155.432 23.7313 154.892 24.0062 154.276 24.1894Z" fill="#333333"/>
</svg>
