<svg width="89" height="32" viewBox="0 0 89 32" fill="none" xmlns="http://www.w3.org/2000/svg">
<path d="M26.2339 20.8012C25.6919 21.9574 24.9436 23.041 23.9877 23.9959C19.5717 28.4067 12.4113 28.4067 7.9954 23.9959C3.57977 19.585 3.58026 12.4334 7.99609 8.02266C8.83751 7.18227 9.77856 6.50204 10.7812 5.98192C10.0702 8.73728 11.8404 13.0164 15.4146 16.5866C18.9888 20.1565 23.2722 21.9226 26.0308 21.2126C26.1015 21.0766 26.1691 20.9394 26.2339 20.8012ZM27.0084 18.5507C26.9953 18.6077 26.9837 18.665 26.9697 18.7219C26.9837 18.665 26.9953 18.6077 27.0084 18.5507ZM15.5569 4.72449C15.4664 4.72795 15.3759 4.73336 15.2854 4.73898C15.3759 4.73336 15.4664 4.72795 15.5569 4.72449ZM26.3147 20.6197C26.2877 20.6801 26.262 20.7412 26.2339 20.8012C26.262 20.7412 26.2877 20.6801 26.3147 20.6197Z" fill="#0267EE"/>
<path d="M26.9615 13.2651C27.622 15.9107 27.3124 18.7484 26.0308 21.2134C23.2723 21.9233 18.9887 20.1572 15.4147 16.5874C11.8404 13.0172 10.071 8.73754 10.782 5.98211C13.2475 4.70314 16.0858 4.39352 18.7325 5.05111C17.8758 4.96047 17.1477 5.13954 16.6611 5.6253C15.2902 6.9947 16.3562 10.28 19.0421 12.9628C21.7281 15.6457 25.0171 16.7105 26.388 15.3411C26.8758 14.8537 27.0541 14.1241 26.9615 13.2651Z" fill="#02DEEE"/>
<ellipse cx="6.87394" cy="3.50862" rx="6.87394" ry="3.50862" transform="matrix(0.707513 0.706701 -0.707513 0.706701 19.1435 3.14621)" fill="white"/>
<ellipse cx="4.07759" cy="2.09705" rx="4.07759" ry="2.09705" transform="matrix(0.707513 0.706701 -0.707513 0.706701 20.8372 5.40643)" fill="#333333"/>
<path fill-rule="evenodd" clip-rule="evenodd" d="M53.096 20.0567C53.6761 20.0498 54.2072 19.9503 54.6894 19.7583C55.1716 19.5664 55.5874 19.2994 55.9368 18.9573C56.2863 18.6153 56.5588 18.2069 56.7545 17.7322C56.9502 17.2576 57.048 16.7305 57.048 16.1512C57.048 15.5578 56.9502 15.0203 56.7545 14.5387C56.5588 14.057 56.2863 13.6452 55.9368 13.3031C55.5874 12.9611 55.1716 12.7011 54.6894 12.5231C54.2072 12.3451 53.6761 12.2596 53.096 12.2665C52.523 12.2665 51.9971 12.359 51.5184 12.544C51.0397 12.729 50.6273 12.9925 50.2814 13.3346C49.9355 13.6766 49.6647 14.0902 49.469 14.5753C49.2733 15.0605 49.1755 15.5997 49.1755 16.1931C49.1755 16.7724 49.2733 17.2995 49.469 17.7741C49.6647 18.2488 49.9355 18.6554 50.2814 18.994C50.6273 19.3325 51.0397 19.5943 51.5184 19.7793C51.9971 19.9642 52.523 20.0567 53.096 20.0567ZM34.1468 18.172L33.476 19.8683H31.9979L35.2266 12.455H36.3692L39.5664 19.8683H38.0569L37.365 18.172H34.1468ZM34.5979 17.0409H36.9041L35.7615 14.0256L34.5979 17.0409ZM43.7737 19.8683C44.2209 19.8683 44.6769 19.7932 45.1417 19.6431C45.6064 19.4931 46.0292 19.2662 46.4101 18.9626C46.7909 18.6589 47.1019 18.275 47.343 17.8108C47.5841 17.3466 47.7047 16.7969 47.7047 16.1616C47.7047 15.5334 47.5998 14.9872 47.3902 14.523C47.1805 14.0588 46.901 13.6731 46.5516 13.366C46.2022 13.0588 45.8003 12.8302 45.3461 12.6801C44.8918 12.5301 44.4201 12.455 43.9309 12.455H41.0062V19.8683H43.7737ZM42.3271 18.6741H43.3124C43.7248 18.6741 44.1144 18.627 44.4813 18.5327C44.8482 18.4385 45.1679 18.2919 45.4404 18.093C45.713 17.8941 45.9279 17.6358 46.0851 17.3182C46.2424 17.0006 46.321 16.615 46.321 16.1613C46.321 15.7146 46.2511 15.3307 46.1113 15.0096C45.9716 14.6886 45.7776 14.4286 45.5295 14.2296C45.2814 14.0307 44.9879 13.8841 44.649 13.7899C44.31 13.6957 43.9379 13.6486 43.5326 13.6486H42.3271V18.6741ZM52.0636 18.6531C52.3746 18.7927 52.7223 18.8625 53.1067 18.8625C53.491 18.8625 53.8404 18.7927 54.1549 18.6531C54.4694 18.5135 54.7385 18.3216 54.9621 18.0773C55.1857 17.833 55.3587 17.5433 55.481 17.2083C55.6033 16.8733 55.6644 16.5068 55.6644 16.109C55.6644 15.739 55.6033 15.3935 55.481 15.0725C55.3587 14.7514 55.1857 14.4705 54.9621 14.2297C54.7385 13.9888 54.4694 13.8004 54.1549 13.6643C53.8404 13.5282 53.491 13.4601 53.1067 13.4601C52.7223 13.4601 52.3746 13.5282 52.0636 13.6643C51.7526 13.8004 51.4853 13.9888 51.2617 14.2297C51.0381 14.4705 50.8651 14.7514 50.7428 15.0725C50.6205 15.3935 50.5593 15.739 50.5593 16.109C50.5593 16.5068 50.6205 16.8733 50.7428 17.2083C50.8651 17.5433 51.0381 17.833 51.2617 18.0773C51.4853 18.3216 51.7526 18.5135 52.0636 18.6531ZM60.2385 19.8683V16.8004H61.1819C61.5733 16.8004 61.9489 16.7724 62.3088 16.7166C62.6687 16.6607 62.985 16.5543 63.2575 16.3972C63.5301 16.2402 63.7467 16.0185 63.9075 15.7323C64.0682 15.4461 64.1486 15.0692 64.1486 14.6015C64.1486 14.1897 64.0734 13.8459 63.9232 13.5702C63.7729 13.2944 63.572 13.0745 63.3204 12.9105C63.0688 12.7465 62.7771 12.6295 62.4451 12.5597C62.1132 12.4899 61.769 12.455 61.4126 12.455H58.9177V19.8683H60.2385ZM60.2385 15.6692H61.0352C61.2239 15.6692 61.4196 15.6622 61.6222 15.6483C61.8249 15.6343 62.0118 15.5925 62.1831 15.5227C62.3543 15.4529 62.4941 15.3482 62.6024 15.2086C62.7107 15.069 62.7649 14.8735 62.7649 14.6223C62.7649 14.3919 62.7159 14.2087 62.6181 14.0726C62.5203 13.9365 62.3945 13.8318 62.2407 13.7585C62.087 13.6852 61.9158 13.6381 61.7271 13.6172C61.5384 13.5962 61.3567 13.5857 61.182 13.5857H60.2385V15.6692ZM68.7752 19.8683V13.6487H71.05V12.455H65.1797V13.6487H67.4544V19.8683H68.7752ZM72.5312 12.455H73.852V19.8683H72.5312V12.455ZM79.6101 20.0567C80.1552 20.0567 80.6688 19.952 81.1511 19.7426C81.6333 19.5332 82.0421 19.1981 82.3775 18.7374L81.2873 17.9626C81.0427 18.2767 80.7789 18.5053 80.4959 18.6484C80.2128 18.7915 79.9211 18.8631 79.6206 18.8631C79.2362 18.8631 78.8885 18.7933 78.5775 18.6536C78.2666 18.514 77.9992 18.3221 77.7756 18.0778C77.552 17.8334 77.379 17.5438 77.2567 17.2087C77.1344 16.8736 77.0733 16.5072 77.0733 16.1093C77.0733 15.7393 77.1344 15.3938 77.2567 15.0727C77.379 14.7516 77.552 14.4706 77.7756 14.2298C77.9992 13.989 78.2666 13.8005 78.5775 13.6644C78.8885 13.5283 79.2362 13.4602 79.6206 13.4602C79.8791 13.4602 80.136 13.5091 80.3911 13.6068C80.6461 13.7045 80.9099 13.9 81.1825 14.1931L82.2098 13.4393C81.8394 13.0134 81.4393 12.7115 81.0095 12.5335C80.5797 12.3555 80.1133 12.2665 79.6101 12.2665C79.037 12.2665 78.5112 12.359 78.0324 12.544C77.5537 12.729 77.1414 12.9925 76.7955 13.3345C76.4496 13.6766 76.1787 14.0902 75.9831 14.5753C75.7874 15.0605 75.6896 15.5997 75.6896 16.193C75.6896 16.7724 75.7874 17.2994 75.9831 17.7741C76.1787 18.2488 76.4496 18.6554 76.7955 18.9939C77.1414 19.3325 77.5537 19.5943 78.0324 19.7792C78.5112 19.9642 79.037 20.0567 79.6101 20.0567ZM86.8468 19.9101C86.5184 20.0079 86.1724 20.0567 85.809 20.0567C85.3478 20.0567 84.904 19.9799 84.4777 19.8264C84.0514 19.6728 83.6845 19.4145 83.3771 19.0515L84.3729 18.0882C84.5336 18.3325 84.745 18.5228 85.0071 18.6589C85.2692 18.795 85.547 18.8631 85.8405 18.8631C85.9942 18.8631 86.148 18.8421 86.3017 18.8002C86.4555 18.7584 86.5952 18.6955 86.721 18.6118C86.8468 18.528 86.9482 18.4215 87.025 18.2924C87.1019 18.1633 87.1403 18.0149 87.1403 17.8474C87.1403 17.5752 87.053 17.3658 86.8783 17.2192C86.7036 17.0726 86.4869 16.9487 86.2284 16.8475C85.9698 16.7462 85.6867 16.6503 85.3793 16.5595C85.0718 16.4688 84.7887 16.3449 84.5302 16.1878C84.2716 16.0307 84.0549 15.8213 83.8802 15.5596C83.7055 15.2978 83.6182 14.947 83.6182 14.5073C83.6182 14.1233 83.6968 13.7918 83.854 13.5125C84.0113 13.2333 84.2174 13.0012 84.4725 12.8162C84.7276 12.6313 85.0193 12.4934 85.3478 12.4027C85.6763 12.3119 86.0117 12.2665 86.3541 12.2665C86.7455 12.2665 87.1246 12.3259 87.4915 12.4445C87.8584 12.5632 88.1886 12.7587 88.4821 13.0309L87.5177 14.0466C87.378 13.8441 87.191 13.6958 86.9569 13.6015C86.7228 13.5073 86.4764 13.4602 86.2179 13.4602C86.0641 13.4602 85.9156 13.4776 85.7724 13.5125C85.6291 13.5474 85.4998 13.6033 85.3845 13.6801C85.2692 13.7569 85.1766 13.8563 85.1067 13.9785C85.0368 14.1006 85.0019 14.2455 85.0019 14.413C85.0019 14.6643 85.0892 14.8563 85.2639 14.9889C85.4387 15.1215 85.6553 15.2367 85.9139 15.3344C86.1724 15.4322 86.4555 15.5264 86.763 15.6172C87.0705 15.7079 87.3535 15.8335 87.6121 15.9941C87.8706 16.1546 88.0873 16.3675 88.262 16.6328C88.4367 16.8981 88.5241 17.2506 88.5241 17.6903C88.5241 18.0882 88.4507 18.4355 88.3039 18.7322C88.1572 19.0288 87.9597 19.2749 87.7117 19.4704C87.4636 19.6658 87.1753 19.8124 86.8468 19.9101Z" fill="#333333"/>
</svg>
